<svg xmlns="http://www.w3.org/2000/svg" viewBox="0 0 860 720" role="img" aria-labelledby="t d"><title id="t">AI-процессор VIONEX</title><desc id="d">Прозрачный футуристичный процессор, символизирующий автоматизацию лидогенерации</desc><defs><linearGradient id="glass" x1="0" y1="0" x2="1" y2="1"><stop stop-color="#b9d8ff" stop-opacity=".5"/><stop offset=".45" stop-color="#7b5cff" stop-opacity=".35"/><stop offset="1" stop-color="#3ef0da" stop-opacity=".18"/></linearGradient><linearGradient id="chip" x1="0" y1="0" x2="1" y2="1"><stop stop-color="#b76bff"/><stop offset="1" stop-color="#3f51ff"/></linearGradient><filter id="glow"><feGaussianBlur stdDeviation="22"/></filter></defs><ellipse cx="430" cy="620" rx="270" ry="45" fill="#765bff" opacity=".26" filter="url(#glow)"/><g transform="translate(115 60) rotate(-8 315 300)"><rect x="55" y="60" width="520" height="520" rx="110" fill="url(#glass)" stroke="#d7e9ff" stroke-opacity=".45" stroke-width="3"/><rect x="105" y="110" width="420" height="420" rx="86" fill="#171236" fill-opacity=".5" stroke="#a38bff" stroke-opacity=".5"/><rect x="175" y="180" width="280" height="280" rx="60" fill="url(#chip)" stroke="#f0e7ff" stroke-opacity=".75" stroke-width="4"/><rect x="205" y="210" width="220" height="220" rx="42" fill="#0d0a23" fill-opacity=".75"/><g stroke="#9ff5ff" stroke-width="8" stroke-linecap="round"><path d="M105 170H35M105 245H20M105 320H10M105 395H20M105 470H35M525 170h70M525 245h85M525 320h95M525 395h85M525 470h70M170 110V35M245 110V20M320 110V10M395 110V20M470 110V35M170 530v75M245 530v90M320 530v100M395 530v90M470 530v75"/></g><text x="315" y="315" text-anchor="middle" font-family="Arial,sans-serif" font-size="42" fill="#fff" font-weight="700">VIONEX</text><text x="315" y="360" text-anchor="middle" font-family="Arial,sans-serif" font-size="24" fill="#bfaeff">LEADS ENGINE</text></g></svg>
